#!OML:ASF E:\emotionWalksFemale\Project 1\Capture day 1\Session 1\Female1.ASF
:FULLY-SPECIFIED
:DEGREES
404
root 8.26382 15.2607 3.28207 -178.395 -5.44524 -183.372
lowerback 7.68542 -0.180219 -4.21234
upperback -2.96451 -0.798088 -0.853345
thorax -7.40164 -0.232902 1.5832
lowerneck -6.53046 -2.73381 -4.7823
upperneck 12.0476 -3.79035 3.05272
head 4.83412 -1.99059 1.48348
rclavicle 1.1052e-014 1.64991e-014
rhumerus -41.4413 2.83963 -85.993
rradius 31.4832
rwrist 18.9123
rhand -1.269 -52.4354
rfingers 7.12502
rthumb 24.3743 -80.9053
lclavicle 1.1052e-014 1.64991e-014
lhumerus -35.1034 -7.93569 90.4025
lradius 39.1212
lwrist -8.49764
lhand -8.96498 -36.3712
lfingers 7.12502
lthumb 16.9801 -7.09341
rfemur -28.3974 29.1527 8.80163
rtibia 17.942
rfoot -29.1794 -41.9317
rtoes 28.0212
lfemur 10.0043 -10.1305 -31.966
ltibia 18.3022
lfoot -21.73 15.8973
ltoes -18.2941
405
root 8.28803 15.262 3.13484 -178.27 -5.70746 -183.263
lowerback 7.61828 -0.278146 -4.10622
upperback -3.12751 -0.92126 -0.830806
thorax -7.53102 -0.294392 1.56436
lowerneck -6.49683 -2.67187 -4.87125
upperneck 12.2123 -3.73803 3.23996
head 4.88179 -1.96365 1.55883
rclavicle 7.43579e-015 6.85807e-015
rhumerus -41.7547 2.73366 -85.9501
rradius 31.3436
rwrist 19.0874
rhand -0.319922 -53.1297
rfingers 7.12502
rthumb 25.2839 -81.4742
lclavicle 7.43579e-015 6.85807e-015
lhumerus -35.4987 -7.4099 90.2458
lradius 38.5215
lwrist -8.93775
lhand -8.83083 -36.5091
lfingers 7.12502
lthumb 17.1093 -7.24242
rfemur -27.828 27.6845 9.85637
rtibia 18.1912
rfoot -26.7898 -41.3043
rtoes 25.7653
lfemur 10.4499 -10.0402 -31.6348
ltibia 18.3028
lfoot -21.4482 15.298
ltoes -17.3393
406
root 8.31437 15.2732 2.98058 -178.151 -6.01206 -183.228
lowerback 7.41169 -0.367984 -4.10264
upperback -3.23594 -1.03928 -0.841409
thorax -7.52121 -0.353576 1.56545
lowerneck -6.55143 -2.62669 -4.60745
upperneck 12.4273 -3.69705 3.05732
head 4.94723 -1.94759 1.45999
rclavicle 7.21837e-015 1.35671e-014
rhumerus -41.9628 2.59685 -85.9523
rradius 31.2102
rwrist 19.0402
rhand -0.506914 -53.1482
rfingers 7.12502
rthumb 25.1047 -81.5178
lclavicle 7.21837e-015 1.35671e-014
lhumerus -35.9395 -6.94893 90.0539
lradius 38.0256
lwrist -9.46896
lhand -8.77475 -36.6383
lfingers 7.12502
lthumb 17.1632 -7.37637
rfemur -27.4123 26.77 10.6006
rtibia 18.5739
rfoot -24.4835 -41.3266
rtoes 23.5286
lfemur 10.9485 -9.88998 -31.3089
ltibia 18.1955
lfoot -20.6494 14.7655
ltoes -19.0687
407
root 8.33541 15.2901 2.82635 -177.965 -5.90022 -183.253
lowerback 7.0907 -0.353738 -4.13664
upperback -3.39303 -1.02126 -0.857082
thorax -7.50481 -0.34553 1.56243
lowerneck -6.49327 -2.56249 -4.40943
upperneck 12.7006 -3.62409 2.77598
head 5.01023 -1.92957 1.3443
rclavicle 1.92045e-014 1.28713e-014
rhumerus -42.179 2.76135 -86.0304
rradius 31.208
rwrist 18.9064
rhand -0.437875 -53.4717
rfingers 7.12502
rthumb 25.1709 -81.832
lclavicle 1.92045e-014 1.28713e-014
lhumerus -36.4392 -6.31398 89.8017
lradius 37.4556
lwrist -10.2513
lhand -8.39989 -36.4196
lfingers 7.12502
lthumb 17.524 -7.18937
rfemur -27.3303 26.2204 11.0773
rtibia 18.9943
rfoot -22.8989 -41.0497
rtoes 23.7358
lfemur 11.3258 -9.57092 -31.1357
ltibia 18.0628
lfoot -19.6822 14.4359
ltoes -21.4061
408
root 8.36026 15.3091 2.66484 -177.896 -5.90217 -183.199
lowerback 6.7912 -0.382483 -4.15539
upperback -3.51826 -1.0532 -0.820843
thorax -7.46279 -0.361169 1.6121
lowerneck -6.55338 -2.5482 -4.33182
upperneck 13.111 -3.61119 2.52792
head 5.14103 -1.94626 1.25204
rclavicle -8.13775e-015 -8.05078e-015
rhumerus -42.4309 2.82467 -86.0115
rradius 31.2256
rwrist 19.0319
rhand -0.157146 -53.9483
rfingers 7.12502
rthumb 25.4398 -82.2706
lclavicle -8.13775e-015 -8.05078e-015
lhumerus -36.9163 -5.53092 89.4784
lradius 36.72
lwrist -11.1492
lhand -7.82914 -36.3466
lfingers 7.12502
lthumb 18.0732 -7.16629
rfemur -27.0698 26.1354 11.5455
rtibia 19.3424
rfoot -22.6711 -40.8169
rtoes 26.6132
lfemur 11.8102 -9.47956 -30.915
ltibia 18.062
lfoot -18.85 14.156
ltoes -23.3891
409
root 8.38684 15.3288 2.50486 -177.952 -5.88212 -182.936
lowerback 6.60276 -0.42024 -3.99557
upperback -3.56311 -1.07101 -0.713184
thorax -7.40001 -0.375216 1.63552
lowerneck -6.82818 -2.529 -4.31594
upperneck 13.551 -3.59663 2.48256
head 5.32249 -1.94852 1.22993
rclavicle 1.06194e-014 1.87355e-014
rhumerus -42.5417 2.78429 -85.9401
rradius 31.0589
rwrist 19.1471
rhand -0.211628 -54.009
rfingers 7.12502
rthumb 25.3877 -82.3387
lclavicle 1.06194e-014 1.87355e-014
lhumerus -37.2537 -4.69169 89.1477
lradius 35.9835
lwrist -12.0009
lhand -7.54849 -36.2339
lfingers 7.12502
lthumb 18.3432 -7.07881
rfemur -26.5449 25.898 12.3861
rtibia 19.5095
rfoot -21.571 -40.4939
rtoes 27.9734
lfemur 12.2337 -9.38108 -30.4779
ltibia 18.37
lfoot -17.7726 14.1238
ltoes -25.7352
